<?xml version="1.0" encoding="utf-8"?>
<!-- Generator: Adobe Illustrator 22.1.0, SVG Export Plug-In . SVG Version: 6.00 Build 0)  -->
<svg version="1.1" id="Layer_1" xmlns="http://www.w3.org/2000/svg" xmlns:xlink="http://www.w3.org/1999/xlink" x="0px" y="0px"
	 viewBox="0 0 1000 1000" style="enable-background:new 0 0 1000 1000;" xml:space="preserve">
<style type="text/css">
	.st0{fill-rule:evenodd;clip-rule:evenodd;fill:#084C7F;}
	.st1{fill:#084C7F;}
	.st2{fill:#FFFFFF;}
	.st3{fill:none;}
	.st4{opacity:0.15;}
	.st5{opacity:0.1;}
	.st6{fill:#333333;}
</style>
<g>
	<g>
		<path class="st0" d="M270.8,213.1c-5.5,0-10.8,2.2-14.7,6.1c-3.9,3.9-6.1,9.2-6.1,14.7c0,51.3,0,186.2,0,273.9
			c0,21.3,8.5,41.7,23.5,56.8c15.1,15.1,35.5,23.5,56.8,23.5c93.2,0,246.1,0,339.4,0c21.3,0,41.7-8.5,56.8-23.5
			c15.1-15.1,23.5-35.5,23.5-56.8c0-87.7,0-222.5,0-273.9c0-5.5-2.2-10.8-6.1-14.7c-3.9-3.9-9.2-6.1-14.7-6.1c-23.1,0-60.2,0-83.3,0
			c-5.5,0-10.8,2.2-14.7,6.1c-3.9,3.9-6.1,9.2-6.1,14.7c0,73,0,312.5,0,312.5l-83.3-83.3c0,0-75.6,0-125,0
			c-11.1,0-21.6-4.4-29.5-12.2c-7.8-7.8-12.2-18.4-12.2-29.5c0-54.1,0-146.4,0-187.5c0-11.5-9.3-20.8-20.8-20.8
			C331,213.1,294,213.1,270.8,213.1L270.8,213.1z"/>
	</g>
	<g>
		<path class="st0" d="M458.3,327.6c5.7,0,10.4,4.7,10.4,10.4c0,5.7-4.7,10.4-10.4,10.4c-5.7,0-10.4-4.7-10.4-10.4
			C447.9,332.3,452.6,327.6,458.3,327.6L458.3,327.6z"/>
	</g>
	<g>
		<path class="st0" d="M500,327.6c5.7,0,10.4,4.7,10.4,10.4c0,5.7-4.7,10.4-10.4,10.4c-5.7,0-10.4-4.7-10.4-10.4
			C489.6,332.3,494.3,327.6,500,327.6L500,327.6z"/>
	</g>
	<g>
		<path class="st0" d="M541.7,327.6c5.7,0,10.4,4.7,10.4,10.4c0,5.7-4.7,10.4-10.4,10.4c-5.7,0-10.4-4.7-10.4-10.4
			C531.3,332.3,535.9,327.6,541.7,327.6L541.7,327.6z"/>
	</g>
</g>
<g id="Moon">
	<circle class="st1" cx="2250" cy="500" r="490"/>
</g>
<g id="Smoke">
	<path class="st2" d="M2421.5,500c0,214.9-138.3,397.4-330.8,463.5c49.9,17.2,103.5,26.5,159.2,26.5c127.5,0,243.6-48.7,330.8-128.5
		C2482.9,771.9,2421.5,643.1,2421.5,500z"/>
</g>
<g id="Shadow">
	<circle class="st3" cx="2250" cy="500" r="489.9"/>
	<path class="st4" d="M1995.4,647c-118.5-205.3-71.6-460.6,99.4-611.8c-30.6,10.3-60.7,23.7-89.8,40.5
		C1770.7,211,1690.4,510.6,1825.7,745s434.9,314.6,669.2,179.3c29.1-16.8,55.7-36.1,80-57.5C2358.6,939.3,2113.9,852.2,1995.4,647z"
		/>
</g>
<g id="Rocket">
	<g>
		<g>
			<g>
				<path class="st2" d="M2421.8,427.3c-0.6-1-1.8-1-2.6-0.2l0,0l-0.2,0.2l-1.5,2.4c-8.8,12.7-13.1,28.3-12.3,43.8l0,2.4
					c0.3,8.8,2,17.5,5.1,25.9l1.6,4.7l1.8,0.6c5.3,1.7,10.8,1.6,16.1-0.3l2-0.8l1.3-4.5c2.6-8.3,4.2-17.2,4.3-26l0-2.4
					c0.1-15.7-4.6-31.2-13.7-43.4L2421.8,427.3z"/>
			</g>
			<g>
				<path class="st2" d="M2392.1,500.6l0,2.8c0,0.8,0.8,1.2,1.2,1.2l2.9-0.6c3.1-0.4,6.1-1.1,9.4-1.3c-2.7-7.6-4.4-15.5-4.9-23.7
					C2395.4,484.5,2392,492.4,2392.1,500.6z"/>
			</g>
			<g>
				<path class="st2" d="M2446.8,503.3l3,0.5c0.6,0.2,1.2-0.4,1.2-1.2l0-2.8c-0.1-8.3-3.6-16.3-9.2-21.7c-0.5,8.1-1.7,16.1-4.1,23.8
					C2440.7,502.4,2443.6,502.6,2446.8,503.3z"/>
			</g>
			<g class="st5">
				<g>
					<path class="st2" d="M2421.6,427.1L2421.6,427.1C2421.4,426.9,2421.4,426.9,2421.6,427.1c-0.2-0.2-0.2-0.2-0.2-0.2l0,0
						c0,0,0,0-0.2-0.2l0,0c-0.2-0.2-0.6-0.2-1-0.2l0,0c8.1,26.4,8.9,54.7,2.1,81.3c2.4,0,4.9-0.7,7.1-1.3l2-0.8l1.3-4.5
						c0.4-1.2,0.6-2.2,1.1-3.2c0.4-1.6,0.7-3.2,1.1-4.7c0.2-1,0.6-2.2,0.7-3.2c0.2-1,0.6-2.2,0.5-3.3c0.2-1,0.2-2.2,0.5-3.3
						c0.3-2.8,0.3-5.5,0.7-8.3l0-2.4c0-1.6,0-2.8-0.1-4.3l0,0c0-0.8-0.2-1.8-0.2-2.6c-0.2-1.4-0.2-2.6-0.5-3.9c0-0.4,0-0.8-0.2-1.4
						c0-0.8-0.2-1.4-0.4-2.4c-0.2-0.6-0.2-1.4-0.4-2c-0.2-1.4-0.6-2.5-0.8-3.5s-0.6-1.8-0.8-2.7c-0.4-1.6-0.8-2.7-1.4-4.1
						c-0.4-0.8-0.6-1.8-1-2.5c-0.4-0.8-0.6-1.8-1.2-2.7c-2-3.9-4.2-7.6-6.7-11.1L2421.6,427.1
						C2421.8,427.3,2421.6,427.1,2421.6,427.1L2421.6,427.1z"/>
				</g>
			</g>
		</g>
	</g>
</g>
<path id="L" class="st2" d="M1928.2,567h-71.9V429.8c0-1.8-1.5-3.3-3.3-3.3s-3.3,1.5-3.3,3.3v140.4c0,1.8,1.5,3.3,3.3,3.3h75.1
	c1.8,0,3.3-1.5,3.3-3.3C1931.5,568.4,1930,567,1928.2,567z"/>
<g id="U">
	<path class="st2" d="M2107.9,426.5c-1.8,0-3.3,1.5-3.3,3.3v94.7c0,23.4-19.1,42.5-42.5,42.5s-42.5-19.1-42.5-42.5v-94.7
		c0-1.8-1.5-3.3-3.3-3.3s-3.3,1.5-3.3,3.3v94.7c0,27.1,21.9,49,49,49c27.1,0,49-21.9,49-49v-94.7
		C2111.2,428,2109.7,426.5,2107.9,426.5z"/>
</g>
<path id="N" class="st2" d="M2287.6,426.5c-1.8,0-3.3,1.5-3.3,3.3v129.5L2198.8,428l0,0c-0.6-0.9-1.6-1.5-2.7-1.5
	c-1.8,0-3.3,1.5-3.3,3.3v140.5c0,1.8,1.5,3.3,3.3,3.3c1.8,0,3.3-1.5,3.3-3.3V440.8l85.5,131.2l0,0c0.6,0.9,1.6,1.5,2.7,1.5
	c1.8,0,3.3-1.5,3.3-3.3V429.8C2290.8,428,2289.4,426.5,2287.6,426.5z"/>
<path id="R" class="st2" d="M2649.6,568.5l-39.3-60.3c22.1-0.5,39.8-18.6,39.8-40.8c0-22.6-18.3-40.8-40.8-40.8h-53.9
	c-1.8,0-3.3,1.5-3.3,3.3v140.5c0,1.8,1.5,3.3,3.3,3.3s3.3-1.5,3.3-3.3v-62.1h43.9l41.6,63.8l0,0c1,1.5,3,1.9,4.5,1
	C2650.2,572,2650.6,570,2649.6,568.5L2649.6,568.5z M2558.7,433h50.6c18.9,0,34.3,15.4,34.3,34.3c0,18.9-15.4,34.3-34.3,34.3h-50.6
	V433z"/>
<g>
	<path id="L_2_" class="st6" d="M495.1,782.6h-48.4v-92.3c0-1.2-1-2.2-2.2-2.2s-2.2,1-2.2,2.2v94.5c0,1.2,1,2.2,2.2,2.2h50.5
		c1.2,0,2.2-1,2.2-2.2S496.3,782.6,495.1,782.6z"/>
	<g id="U_2_">
		<path class="st1" d="M313.7,688c-1.2,0-2.2,1-2.2,2.2V754c0,15.8-12.8,28.6-28.6,28.6c-15.8,0-28.6-12.8-28.6-28.6v-63.7
			c0-1.2-1-2.2-2.2-2.2c-1.2,0-2.2,1-2.2,2.2V754c0,18.2,14.8,33,33,33s33-14.8,33-33v-63.7C315.9,689,314.9,688,313.7,688z"/>
	</g>
	<path id="N_2_" class="st6" d="M646.7,688c-1.2,0-2.2,1-2.2,2.2v87.1L587,689l0,0c-0.4-0.6-1.1-1-1.8-1c-1.2,0-2.2,1-2.2,2.2v94.5
		c0,1.2,1,2.2,2.2,2.2c1.2,0,2.2-1,2.2-2.2v-87.1l57.5,88.3l0,0c0.4,0.6,1.1,1,1.8,1c1.2,0,2.2-1,2.2-2.2v-94.5
		C648.9,689,647.9,688,646.7,688z"/>
	<path id="R_2_" class="st1" d="M388.1,743c14.9-0.4,26.8-12.5,26.8-27.5c0-15.2-12.3-27.5-27.5-27.5h-36.3c-1.2,0-2.2,1-2.2,2.2
		v94.5c0,1.2,1,2.2,2.2,2.2s2.2-1,2.2-2.2V743L388.1,743z M353.3,692.4h34.1c12.7,0,23.1,10.4,23.1,23.1c0,12.7-10.4,23.1-23.1,23.1
		h-34.1V692.4z"/>
	<path class="st6" d="M748.9,782.9l-35.8-49.5l35.7-41.1c0.8-0.3,1.3-1.1,1.3-2c0-1.2-1-2.2-2.2-2.2c-1,0-1.8,0.7-2.1,1.6
		l-46.3,53.3v-52.7c0-1.2-1-2.2-2.2-2.2s-2.2,1-2.2,2.2v94.5c0,1.2,1,2.2,2.2,2.2s2.2-1,2.2-2.2V749l10.9-12.6l35.3,48.8
		c0.2,1,1.1,1.8,2.2,1.8c1.2,0,2.2-1,2.2-2.2C750,783.9,749.6,783.2,748.9,782.9z"/>
	<path class="st6" d="M534.6,688c-1.2,0-2.2,1-2.2,2.2v94.5c0,1.2,1,2.2,2.2,2.2c1.2,0,2.2-1,2.2-2.2v-94.5
		C536.8,689,535.8,688,534.6,688z"/>
</g>
<text transform="matrix(1 0 0 1 239.6465 1429.1021)" style="font-family:'OpenSans-Light'; font-size:112px; letter-spacing:19;">UPLINK</text>
<rect x="517" y="1335" class="st6" width="42" height="115"/>
<rect x="479" y="1335" class="st6" width="32" height="115"/>
<rect x="399" y="1335" class="st6" width="35" height="115"/>
<rect x="310" y="1335" class="st6" width="40" height="115"/>
</svg>
